<?xml version="1.0" encoding="iso-8859-1"?>
<!-- Uploaded to: SVG Repo, www.svgrepo.com, Generator: SVG Repo Mixer Tools -->
<svg height="800px" width="800px" version="1.1" id="Layer_1" xmlns="http://www.w3.org/2000/svg" xmlns:xlink="http://www.w3.org/1999/xlink" 
	 viewBox="0 0 511.999 511.999" xml:space="preserve">
<circle style="fill:#CFF09E;" cx="255.996" cy="337.838" r="76.541"/>
<g>
	<path style="fill:#507C5C;" d="M255.999,428.712c-50.108,0-90.872-40.766-90.872-90.872s40.766-90.872,90.872-90.872
		s90.874,40.766,90.874,90.872S306.106,428.712,255.999,428.712z M255.999,275.617c-34.31,0-62.221,27.912-62.221,62.221
		s27.912,62.221,62.221,62.221s62.223-27.912,62.223-62.221S290.31,275.617,255.999,275.617z"/>
	<path style="fill:#507C5C;" d="M407.135,251.242c-14.601-25.432-35.562-46.946-60.615-62.217
		c-6.756-4.119-15.57-1.978-19.688,4.778s-1.978,15.57,4.778,19.688c43.77,26.677,69.901,73.162,69.901,124.348
		c0,75.401-57.65,137.586-131.186,144.805v-22.184c0-7.912-6.415-14.326-14.326-14.326c-7.912,0-14.325,6.414-14.325,14.326v37.215
		c0,7.912,6.414,14.326,14.325,14.326c96.034,0,174.162-78.128,174.162-174.162C430.162,307.423,422.2,277.478,407.135,251.242z"/>
	<path style="fill:#507C5C;" d="M241.673,96.714c0,7.912,6.414,14.325,14.325,14.325c7.911,0,14.325-6.414,14.325-14.325v-20.5
		c31.049,6.61,54.414,34.236,54.414,67.227c0,7.912,6.415,14.325,14.325,14.325c7.911,0,14.326-6.414,14.326-14.325
		c0-48.834-36.133-89.378-83.065-96.327V14.325C270.324,6.414,263.909,0,255.999,0c-7.912,0-14.325,6.414-14.325,14.325v32.787
		c-46.933,6.949-83.065,47.493-83.065,96.327v49.996c-22.021,14.886-40.5,34.732-53.746,57.805
		c-15.063,26.236-23.025,56.18-23.025,86.596c0,53.961,24.408,103.994,66.964,137.271c2.62,2.049,5.729,3.041,8.814,3.041
		c4.256,0,8.471-1.888,11.294-5.502c4.874-6.233,3.772-15.235-2.461-20.109c-35.564-27.809-55.961-69.616-55.961-114.701
		c0-51.186,26.131-97.671,69.901-124.348c4.266-2.6,6.869-7.236,6.869-12.233v-57.815c0-32.99,23.365-60.617,54.414-67.227v20.5
		H241.673z"/>
</g>
</svg>