<?xml version="1.0" encoding="iso-8859-1"?>
<!-- Uploaded to: SVG Repo, www.svgrepo.com, Generator: SVG Repo Mixer Tools -->
<svg version="1.1" id="Layer_1" xmlns="http://www.w3.org/2000/svg" xmlns:xlink="http://www.w3.org/1999/xlink" 
	 viewBox="0 0 512 512" xml:space="preserve">
<g>
	<rect x="45.811" style="fill:#FF4F2A;" width="32.337" height="280.253"/>
	<rect x="110.484" style="fill:#FF4F2A;" width="32.337" height="135.642"/>
</g>
<path style="fill:#FFD485;" d="M256,53.895c-107.155,0-194.021,86.866-194.021,194.021L256,280.253L353.01,79.858
	C324.472,63.349,291.341,53.895,256,53.895z"/>
<g>
	<path style="fill:#FFB833;" d="M142.821,280.253h-32.337v-32.337c0-80.237,65.278-145.516,145.516-145.516
		c16.623,0,32.951,2.794,48.531,8.304l-10.783,30.486c-12.107-4.281-24.807-6.453-37.748-6.453
		c-62.407,0-113.179,50.772-113.179,113.179V280.253z"/>
	<path style="fill:#FFB833;" d="M207.495,280.253h-32.337v-32.337c0-44.576,36.266-80.842,80.842-80.842
		c4.424,0,8.931,0.378,13.399,1.124l-5.324,31.895c-2.713-0.453-5.429-0.682-8.075-0.682c-26.746,0-48.505,21.759-48.505,48.505
		v32.337H207.495z"/>
	<path style="fill:#FFB833;" d="M261.389,280.253h204.8v-32.337c0-67.301-31.635-127.206-80.842-165.673h-21.558
		c-35.247,14.613-102.4,63.053-102.4,165.673V280.253z"/>
	<path style="fill:#FFB833;" d="M256,37.726c-115.898,0-210.189,94.291-210.189,210.189v32.337h32.337v-32.337
		c0-98.068,79.785-177.853,177.853-177.853c22.843,0,44.691,4.333,64.772,12.213h32.239V61.497
		C323.97,46.324,290.972,37.726,256,37.726z"/>
</g>
<g>
	<path style="fill:#FF832F;" d="M239.832,280.253h32.337v-32.337c0-75.264,46.996-139.754,113.182-165.679
		c-10.06-7.864-20.857-14.826-32.266-20.78c-67.24,35.099-113.253,105.502-113.253,186.459V280.253z"/>
	<path style="fill:#FF832F;" d="M336.842,280.253v-32.337c0-56.924,42.243-104.158,97.026-112.021
		c-6.389-10.124-13.615-19.663-21.586-28.521c-62.001,16.664-107.777,73.354-107.777,140.542v32.337H336.842z"/>
	<path style="fill:#FF832F;" d="M401.516,280.253v-32.337c0-26.746,21.759-48.505,48.505-48.505c3.722,0,7.343,0.435,10.825,1.233
		c-2.663-11.585-6.286-22.803-10.777-33.569c-44.625-0.001-80.891,36.265-80.891,80.841v32.337H401.516z"/>
</g>
<rect x="164.379" y="479.663" style="fill:#FF1A26;" width="183.242" height="32.337"/>
<path style="fill:#FF832F;" d="M8.084,247.916c0,136.921,110.995,247.916,247.916,247.916l21.558-123.958L256,247.916H8.084z"/>
<path style="fill:#FF4F2A;" d="M256,247.916v247.916c136.921,0,247.916-110.995,247.916-247.916H256z"/>
</svg>