<?xml version="1.0" encoding="iso-8859-1"?>
<!-- Uploaded to: SVG Repo, www.svgrepo.com, Generator: SVG Repo Mixer Tools -->
<svg height="800px" width="800px" version="1.1" id="Layer_1" xmlns="http://www.w3.org/2000/svg" xmlns:xlink="http://www.w3.org/1999/xlink" 
	 viewBox="0 0 512.001 512.001" xml:space="preserve">
<path style="fill:#3C1146;" d="M256.001,512.001C114.841,512.001,0,397.161,0,256.001S114.841,0.001,256.001,0.001
	s256.001,114.841,256.001,256.001c0,70.849-28.291,136.757-79.661,185.583c-5.701,5.417-14.711,5.188-20.129-0.511
	c-5.417-5.699-5.19-14.711,0.51-20.129c45.659-43.396,70.804-101.974,70.804-164.943c0-125.458-102.066-227.526-227.525-227.526
	S28.475,130.543,28.475,256.001s102.066,227.526,227.526,227.526c30.709,0,60.493-6.01,88.527-17.859
	c7.243-3.061,15.596,0.327,18.657,7.57c3.061,7.243-0.327,15.596-7.57,18.658C324.052,505.237,290.538,512.001,256.001,512.001z"/>
<path style="fill:#D4A8B4;" d="M256.001,118.57L256.001,118.57c-20.708,0-40.182,5.56-57.001,15.26
	c-41.311,23.826-62.689,71.511-54.395,118.475c0,0,21.004,108.082,31.69,125.498c6.165,10.047,15.658,14.935,25.318,15.563
	c21.866,1.422,38.57-19.377,33.38-40.665l-14.243-40.218c-4.489-18.409,5.537-37.588,23.506-43.602
	c3.696-1.237,7.647-1.908,11.746-1.908l0,0c0.513,0,1.022,0.01,1.53,0.031c23.029,0.943,39.133,23.291,33.671,45.683L277.011,352.7
	c-5.192,21.289,11.514,42.087,33.379,40.665c9.66-0.628,19.154-5.516,25.318-15.563c10.687-17.417,31.69-125.498,31.69-125.498
	c8.292-46.963-13.084-94.649-54.395-118.475C296.181,124.128,276.709,118.57,256.001,118.57z"/>
<g>
	<path style="fill:#3C1146;" d="M308.275,407.671c-0.001,0-0.003,0-0.003,0c-14.182,0-27.408-6.487-36.291-17.797
		c-9.065-11.541-12.274-26.321-8.804-40.547c0.114-0.47,0.252-0.931,0.413-1.387l13.921-39.25c1.41-6.553-0.084-13.348-4.14-18.738
		c-4.035-5.358-9.868-8.456-16.423-8.725c-2.789-0.115-5.554,0.275-8.175,1.153c-10.543,3.528-16.743,14.911-14.334,26.107
		l13.974,39.457c0.159,0.453,0.298,0.914,0.41,1.38c3.471,14.227,0.262,29.007-8.803,40.548
		c-9.513,12.112-24.087,18.682-39.334,17.697c-15.113-0.984-28.428-9.12-36.527-22.326
		c-11.455-18.667-29.941-111.756-33.532-130.226c-0.016-0.08-0.03-0.161-0.044-0.241c-9.387-53.158,15.25-106.72,61.303-133.283
		c19.47-11.229,41.64-17.163,64.114-17.163s44.644,5.934,64.114,17.163c46.054,26.563,70.689,80.125,61.303,133.283
		c-0.014,0.08-0.03,0.161-0.044,0.241c-3.589,18.472-22.076,111.56-33.532,130.228c-8.1,13.204-21.414,21.34-36.527,22.324
		C310.303,407.637,309.281,407.671,308.275,407.671z M290.703,356.682c-1.153,5.491,0.171,11.145,3.672,15.603
		c3.45,4.391,8.514,6.911,13.898,6.911c0.001,0,0.003,0,0.003,0c0.393,0,0.79-0.013,1.189-0.038c4.137-0.269,9.942-2.015,14.106-8.8
		c5.839-9.516,19.743-68.788,29.826-120.646c7.257-41.37-11.827-82.968-47.509-103.548c-15.15-8.737-32.401-13.355-49.888-13.355
		s-34.738,4.619-49.888,13.355c-35.683,20.58-54.765,62.18-47.509,103.548c10.083,51.858,23.989,111.13,29.826,120.645
		c4.164,6.787,9.969,8.532,14.106,8.802c5.86,0.39,11.39-2.158,15.092-6.871c3.501-4.458,4.824-10.114,3.67-15.607l-13.971-39.445
		c-0.159-0.453-0.298-0.914-0.41-1.38c-6.259-25.659,8.157-52.223,32.819-60.476c5.91-1.979,12.187-2.852,18.378-2.601
		c15.022,0.615,28.875,7.922,38.005,20.049c9.341,12.406,12.59,28.164,8.914,43.233c-0.114,0.468-0.252,0.931-0.413,1.385
		L290.703,356.682z"/>
	<path style="fill:#3C1146;" d="M256.001,234.13c-7.862,0-14.237-6.374-14.237-14.237V118.57c0-7.863,6.375-14.237,14.237-14.237
		c7.862,0,14.237,6.374,14.237,14.237v101.323C270.238,227.756,263.863,234.13,256.001,234.13z"/>
	<path style="fill:#3C1146;" d="M317.78,231.507c-4.344,0-8.632-1.98-11.427-5.731c-11.982-16.078-30.336-25.301-50.352-25.301
		s-38.37,9.222-50.352,25.301c-4.698,6.306-13.621,7.606-19.924,2.909c-6.306-4.698-7.607-13.618-2.909-19.924
		c17.155-23.018,44.513-36.759,73.184-36.759s56.03,13.742,73.184,36.759c4.698,6.306,3.397,15.225-2.909,19.924
		C323.722,230.589,320.737,231.507,317.78,231.507z"/>
</g>
</svg>